<svg id="Layer_1" data-name="Layer 1" xmlns="http://www.w3.org/2000/svg" viewBox="0 0 325.52 228.18"><defs><style>.cls-1{fill:#1de9b6;}.cls-2{fill:#642cff;}</style></defs><title>eye</title><path class="cls-1" d="M57.86,114.09A104.9,104.9,0,0,1,162.76,9.18,167.85,167.85,0,0,0,7.15,114.09,167.84,167.84,0,0,0,162.76,219,104.89,104.89,0,0,1,57.86,114.09Z"/><path class="cls-1" d="M162.76,9.18a104.91,104.91,0,1,1,0,209.81,167.84,167.84,0,0,0,155.61-104.9A167.85,167.85,0,0,0,162.76,9.18Z"/><path class="cls-2" d="M267.67,114.09A104.91,104.91,0,1,0,162.76,219,104.91,104.91,0,0,0,267.67,114.09ZM162.76,200.76a86.67,86.67,0,1,1,86.67-86.67A86.68,86.68,0,0,1,162.76,200.76Z"/><circle class="cls-1" cx="162.76" cy="114.09" r="68.5"/><circle class="cls-2" cx="162.76" cy="114.09" r="51.86"/></svg>