<?xml version="1.0" encoding="utf-8"?>
<!-- Generator: Adobe Illustrator 23.0.3, SVG Export Plug-In . SVG Version: 6.00 Build 0)  -->
<svg version="1.1" id="Layer_1" xmlns="http://www.w3.org/2000/svg" xmlns:xlink="http://www.w3.org/1999/xlink" x="0px" y="0px"
	 viewBox="0 0 141.72 141.72" style="enable-background:new 0 0 141.72 141.72;" xml:space="preserve">
<style type="text/css">
	.st0{opacity:0.1;fill:#6CE5B9;}
	.st1{fill:none;stroke:#6CE5B9;stroke-miterlimit:10;}
</style>
<g>
	<path class="st0" d="M98.33,52.78c0,9.36-5.1,17.53-12.67,21.88C81.96,76.78,77.68,78,73.11,78s-8.85-1.22-12.55-3.34
		c-7.57-4.35-12.67-12.52-12.67-21.88c0-13.93,11.29-25.22,25.22-25.22S98.33,38.85,98.33,52.78z"/>
	<path class="st0" d="M118.86,118.67h-91.5c0-20.92,14.03-38.56,33.2-44.01c3.7,2.12,7.98,3.34,12.55,3.34s8.85-1.22,12.55-3.34
		C104.83,80.11,118.86,97.75,118.86,118.67z"/>
	<path class="st1" d="M93.83,48.28c0,9.36-5.1,17.53-12.67,21.88c-3.7,2.12-7.98,3.34-12.55,3.34s-8.85-1.22-12.55-3.34
		c-7.57-4.35-12.67-12.52-12.67-21.88c0-13.93,11.29-25.22,25.22-25.22S93.83,34.35,93.83,48.28z"/>
	<path class="st1" d="M114.36,114.17h-91.5c0-20.92,14.03-38.56,33.2-44.01c3.7,2.12,7.98,3.34,12.55,3.34s8.85-1.22,12.55-3.34
		C100.33,75.61,114.36,93.25,114.36,114.17z"/>
</g>
</svg>
